<svg width="26" height="25" viewBox="0 0 26 25" fill="none" xmlns="http://www.w3.org/2000/svg">
<g clip-path="url(#clip0)">
<path d="M25.8113 19.534C25.8113 20.236 25.2437 20.8052 24.5436 20.8052H21.4728V23.6865C21.4728 24.3886 20.9052 24.9577 20.205 24.9577C19.5049 24.9577 18.9373 24.3886 18.9373 23.6865V20.8052H7.61195V23.6865C7.61195 24.3886 7.04433 24.9577 6.34419 24.9577C5.64405 24.9577 5.07643 24.3886 5.07643 23.6865V20.8052H2.23099C1.53084 20.8052 0.963225 20.236 0.963225 19.534C0.963225 18.832 1.53084 18.2628 2.23099 18.2628H5.07643V6.90689H2.14647C1.44633 6.90689 0.878708 6.33773 0.878708 5.6357C0.878708 4.93367 1.44633 4.36451 2.14647 4.36451H5.07643V1.31367C5.07643 0.611633 5.64405 0.0424805 6.34419 0.0424805C7.04433 0.0424805 7.61195 0.611633 7.61195 1.31367V4.27977H18.9373V1.31367C18.9373 0.611633 19.5049 0.0424805 20.205 0.0424805C20.9052 0.0424805 21.4728 0.611633 21.4728 1.31367V4.36451H24.459C25.1592 4.36451 25.7268 4.93367 25.7268 5.6357C25.7268 6.33773 25.1592 6.90689 24.459 6.90689H21.5573V18.2628H24.5436C25.2437 18.2628 25.8113 18.832 25.8113 19.534Z" fill="black"/>
</g>
<defs>
<clipPath id="clip0">
<rect width="24.9326" height="25" fill="white" transform="translate(0.878708)"/>
</clipPath>
</defs>
</svg>
