<svg width="26" height="25" viewBox="0 0 26 25" fill="none" xmlns="http://www.w3.org/2000/svg">
<g clip-path="url(#clip0)">
<path d="M7.45017 10.042L9.38503 11.9821L12.8284 8.52939L10.8936 6.58935C11.427 4.79584 10.9465 2.84453 9.60723 1.50161C8.228 0.118647 6.21878 -0.352935 4.36369 0.270795C4.13905 0.346332 3.96491 0.52641 3.89654 0.753901C3.82817 0.981342 3.8741 1.22797 4.0197 1.41538L6.0518 4.03076L4.89848 5.18725L2.29014 3.14955C2.10325 3.00351 1.85728 2.95751 1.6305 3.02607C1.40362 3.09462 1.22403 3.26918 1.1487 3.49448C0.526551 5.35463 0.996862 7.36923 2.37614 8.75219C3.71544 10.0951 5.6615 10.5769 7.45017 10.042Z" fill="black"/>
<path d="M19.2397 14.9579L17.3049 13.0178L13.8615 16.4705L15.7964 18.4105C15.263 20.204 15.7434 22.1553 17.0827 23.4983C18.0594 24.4776 19.3518 25 20.6819 24.9999C21.2301 24.9999 21.7848 24.9111 22.3263 24.7291C22.5509 24.6535 22.725 24.4734 22.7934 24.2459C22.8618 24.0185 22.8159 23.7719 22.6703 23.5845L20.6381 20.9691L21.7915 19.8126L24.3998 21.8502C24.5867 21.9962 24.8326 22.0422 25.0595 21.9737C25.2863 21.9052 25.4659 21.7306 25.5413 21.5053C26.1634 19.6452 25.6931 17.6306 24.3138 16.2476C22.9745 14.9047 21.0285 14.4231 19.2397 14.9579Z" fill="black"/>
<path d="M7.6166 15.8271C7.33133 15.541 6.86886 15.541 6.5836 15.8271L1.5907 20.8335C0.641358 21.7854 0.641358 23.3342 1.5907 24.2861C2.54004 25.238 4.08474 25.238 5.03408 24.2861L10.027 19.2798C10.3122 18.9937 10.3122 18.53 10.027 18.244L7.6166 15.8271Z" fill="black"/>
<path d="M20.1478 11.8936C20.4697 12.2163 20.8978 12.3942 21.353 12.3942C21.8083 12.3942 22.2363 12.2163 22.5582 11.8936L25.3129 9.13142C25.9774 8.46511 25.9774 7.38088 25.3129 6.71457L19.1148 0.499731C18.4503 -0.166577 17.3691 -0.166577 16.7045 0.499731L13.9498 3.26189C13.2853 3.9282 13.2853 5.01243 13.9498 5.67874L20.1478 11.8936Z" fill="black"/>
<path d="M14.8107 8.61353L8.6496 14.7912L8.64969 14.7913L11.0599 17.2081L17.221 11.0304L14.8107 8.61353Z" fill="black"/>
</g>
<defs>
<clipPath id="clip0">
<rect width="24.9326" height="25" fill="white" transform="translate(0.878708)"/>
</clipPath>
</defs>
</svg>
