<svg width="26" height="25" viewBox="0 0 26 25" fill="none" xmlns="http://www.w3.org/2000/svg">
<g clip-path="url(#clip0)">
<path d="M13.345 3.66211C12.1367 3.66211 11.1537 4.64783 11.1537 5.85938C11.1537 7.07092 12.1367 8.05664 13.345 8.05664C14.5533 8.05664 15.5364 7.07092 15.5364 5.85938C15.5364 4.64783 14.5533 3.66211 13.345 3.66211Z" fill="black"/>
<path d="M13.345 0C10.1229 0 7.50143 2.62852 7.50143 5.85938C7.50143 6.96735 7.81168 8.04672 8.3989 8.98075L13.345 16.8945L18.2911 8.98075C18.8783 8.04672 19.1886 6.96735 19.1886 5.85938C19.1886 2.62852 16.5672 0 13.345 0ZM13.345 9.52148C11.3313 9.52148 9.69278 7.87849 9.69278 5.85938C9.69278 3.84026 11.3313 2.19727 13.345 2.19727C15.3587 2.19727 16.9973 3.84026 16.9973 5.85938C16.9973 7.87849 15.3587 9.52148 13.345 9.52148Z" fill="black"/>
<path d="M9.78998 25H16.8976L16.3359 20.5566H10.3376L9.78998 25Z" fill="black"/>
<path d="M10.5202 19.0919H12.9996L10.9305 15.8015L10.5202 19.0919Z" fill="black"/>
<path d="M17.6219 19.0918H23.3767L21.5506 14.6973H17.0598L17.6219 19.0918Z" fill="black"/>
<path d="M3.31334 19.0918H9.04811L9.59595 14.6973H5.13946L3.31334 19.0918Z" fill="black"/>
<path d="M13.6905 19.0917H16.1485L15.7332 15.8435L13.6905 19.0917Z" fill="black"/>
<path d="M8.86551 20.5566H2.70464L0.878708 25H8.31786L8.86551 20.5566Z" fill="black"/>
<path d="M23.9854 20.5566H17.8091L18.371 25H25.8113L23.9854 20.5566Z" fill="black"/>
</g>
<defs>
<clipPath id="clip0">
<rect width="24.9326" height="25" fill="white" transform="translate(0.878708)"/>
</clipPath>
</defs>
</svg>
