<svg width="26" height="25" viewBox="0 0 26 25" fill="none" xmlns="http://www.w3.org/2000/svg">
<g clip-path="url(#clip0)">
<path d="M25.8029 4.79534C25.8029 8.59351 24.1516 11.3529 24.0821 11.468C23.9423 11.6972 23.7001 11.823 23.4503 11.823C23.3191 11.823 23.187 11.7881 23.0674 11.7156C22.7182 11.5028 22.6063 11.0473 22.8175 10.6972C22.833 10.672 24.3233 8.16021 24.3233 4.79534C24.3233 2.87643 23.079 1.48367 21.3639 1.48367C19.7318 1.48367 18.4046 2.81453 18.4046 4.45199C18.4046 5.14933 18.7412 6.92123 18.8705 7.54507C18.9544 7.94646 18.6968 8.33914 18.2965 8.42328C17.8962 8.50549 17.5046 8.24919 17.4217 7.84877C17.3705 7.60407 16.923 5.42885 16.923 4.45199C16.923 1.99725 18.9148 0 21.3639 0C23.894 0 25.8029 2.06109 25.8029 4.79534ZM21.4893 5.96274C21.7835 8.42812 22.2099 13.2322 21.7199 13.7216L10.9686 24.5029C10.3078 25.1664 9.23425 25.1664 8.57254 24.5019L1.38349 17.2944C0.721781 16.6318 0.721781 15.5554 1.38349 14.8919L12.1357 4.11154C12.3065 3.94034 14.1662 3.93261 16.2574 4.0419C16.2458 4.18021 16.2159 4.31078 16.2159 4.45199C16.2159 4.98975 16.3346 5.82347 16.459 6.5566C16.24 6.88254 16.1117 7.27426 16.1117 7.69692C16.1117 8.82273 17.0223 9.73576 18.1451 9.73576C19.2679 9.73576 20.1784 8.82273 20.1784 7.69692C20.1784 7.00344 19.8322 6.39218 19.3045 6.02464C19.1965 5.37953 19.1097 4.75665 19.1097 4.45199C19.1097 4.38622 19.1232 4.32529 19.129 4.26048C19.3865 4.28757 19.6402 4.31561 19.8804 4.3456C21.3012 4.52066 21.3157 4.51776 21.4893 5.96274ZM15.7587 14.0311C15.5918 13.5658 15.314 13.0078 14.7112 12.3656L15.5272 11.5463L14.6186 10.6362L13.7379 11.5202C12.5592 10.7107 11.3438 10.7765 10.5191 11.6034C9.62008 12.5048 9.83229 13.649 10.4921 14.9789C10.9454 15.8997 11.0284 16.4297 10.6763 16.7827C10.3146 17.1454 9.73101 16.9878 9.20145 16.4578C8.59955 15.8542 8.24651 15.1085 8.07096 14.504L6.70704 15.3145C6.86523 15.862 7.29157 16.6425 7.89348 17.2847L7.00413 18.1774L7.9118 19.0885L8.86771 18.131C10.1284 19.0228 11.3997 18.9028 12.2245 18.0759C13.0685 17.2276 13.1428 16.2798 12.4193 14.7739C11.9177 13.6945 11.7972 13.1645 12.0942 12.8675C12.3547 12.6064 12.8177 12.5319 13.4206 13.1364C14.089 13.8067 14.3109 14.4576 14.4314 14.8019L15.7587 14.0311Z" fill="black"/>
</g>
<defs>
<clipPath id="clip0">
<rect width="24.9326" height="25" fill="white" transform="translate(0.878708)"/>
</clipPath>
</defs>
</svg>
